<svg xmlns="http://www.w3.org/2000/svg" width="1280" height="640" viewBox="0 0 1280 640" role="img" aria-labelledby="title description">
  <title id="title">Airline Ticket CLI</title>
  <desc id="description">Social preview for a Python command-line airline reservation project.</desc>
  <defs>
    <linearGradient id="background" x1="0" y1="0" x2="1" y2="1">
      <stop offset="0" stop-color="#071b33"/>
      <stop offset="1" stop-color="#123f66"/>
    </linearGradient>
    <linearGradient id="accent" x1="0" y1="0" x2="1" y2="0">
      <stop offset="0" stop-color="#55d6be"/>
      <stop offset="1" stop-color="#7dd3fc"/>
    </linearGradient>
  </defs>
  <rect width="1280" height="640" rx="32" fill="url(#background)"/>
  <circle cx="1100" cy="100" r="250" fill="#1e5f8c" opacity="0.28"/>
  <circle cx="160" cy="620" r="260" fill="#0d9488" opacity="0.16"/>
  <g transform="rotate(-10 1030 230)" aria-label="Passenger airplane illustration">
    <path d="M852 239 L900 225 L1085 210 Q1135 207 1184 229 Q1198 236 1184 243 Q1135 264 1085 260 L900 252 Z" fill="url(#accent)"/>
    <path d="M1012 222 L1080 137 L1113 139 L1070 225 Z" fill="#7dd3fc"/>
    <path d="M1008 251 L1080 337 L1113 334 L1068 248 Z" fill="#55d6be"/>
    <path d="M886 228 L860 181 L883 178 L930 224 Z" fill="#55d6be"/>
    <path d="M886 250 L857 278 L880 282 L932 253 Z" fill="#7dd3fc"/>
    <ellipse cx="1068" cy="284" rx="29" ry="12" fill="#0f766e"/>
    <ellipse cx="1080" cy="181" rx="29" ry="12" fill="#0f766e"/>
    <path d="M1154 225 Q1172 228 1185 235 Q1170 242 1153 244 Z" fill="#ecfeff" opacity="0.9"/>
    <g fill="#0b2b47">
      <circle cx="943" cy="235" r="4"/>
      <circle cx="961" cy="233" r="4"/>
      <circle cx="979" cy="231" r="4"/>
      <circle cx="997" cy="230" r="4"/>
      <circle cx="1015" cy="228" r="4"/>
    </g>
  </g>
  <rect x="88" y="82" width="150" height="40" rx="20" fill="#0f766e"/>
  <text x="163" y="109" text-anchor="middle" font-family="Arial, sans-serif" font-size="18" font-weight="700" fill="#ecfeff">PYTHON CLI</text>
  <text x="88" y="246" font-family="Arial, sans-serif" font-size="72" font-weight="700" fill="#f8fafc">Airline Ticket CLI</text>
  <text x="92" y="306" font-family="Arial, sans-serif" font-size="29" fill="#bfdbfe">Flights, tickets, check-in, seating, and reports</text>
  <rect x="90" y="374" width="690" height="154" rx="18" fill="#051426" stroke="#24577d" stroke-width="2"/>
  <circle cx="125" cy="406" r="7" fill="#55d6be"/>
  <circle cx="149" cy="406" r="7" fill="#7dd3fc"/>
  <circle cx="173" cy="406" r="7" fill="#fbbf24"/>
  <text x="122" y="458" font-family="Consolas, monospace" font-size="25" fill="#55d6be">$ python main.py</text>
  <text x="122" y="500" font-family="Consolas, monospace" font-size="22" fill="#cbd5e1">Role-based workflows | CSV persistence | unittest</text>
</svg>
